<svg xmlns="http://www.w3.org/2000/svg" viewBox="0 0 77.16 51.58"><path d="M58.76,16.16l-9.57,9.77c0,.08,0,.16,0,.24A11.39,11.39,0,0,1,37.81,37.56h0L33.46,42c1.43.14,2.87.23,4.35.23,14,0,25.83-6.81,29.22-16A21.56,21.56,0,0,0,58.76,16.16Z" style="fill:#333f4d"/><path d="M37.81,14.78A11.37,11.37,0,0,0,28,31.87L43.31,16.2A11.34,11.34,0,0,0,37.81,14.78Z" style="fill:none"/><path d="M60.12,4.42a3.77,3.77,0,0,0-5.32.06L48,11.4a40.89,40.89,0,0,0-10.2-1.27c-14,0-25.82,6.81-29.21,16,1.91,5.21,6.52,9.64,12.69,12.52L17.45,42.6a3.76,3.76,0,0,0,5.38,5.26L60.17,9.74A3.77,3.77,0,0,0,60.12,4.42ZM26.42,26.17a11.38,11.38,0,0,1,16.89-10L28,31.87A11.36,11.36,0,0,1,26.42,26.17Z" style="fill:#333f4d"/></svg>