<svg xmlns="http://www.w3.org/2000/svg" viewBox="0 0 77.16 148.87"><title>phone-portrait</title><path d="M66.88,3.18H57.77a6,6,0,0,1-5.92,5.34H25.3a6,6,0,0,1-5.92-5.34H10.5a7.21,7.21,0,0,0-7.21,7.21V138.48a7.21,7.21,0,0,0,7.21,7.21H66.88a7.21,7.21,0,0,0,7.21-7.21V10.39A7.21,7.21,0,0,0,66.88,3.18Z" style="fill:none"/><path d="M67.62,0H9.54A9.54,9.54,0,0,0,0,9.54V139.33a9.54,9.54,0,0,0,9.54,9.54H67.62a9.54,9.54,0,0,0,9.54-9.54V9.54A9.54,9.54,0,0,0,67.62,0Zm5.47,138.48c0,4-2.23,6.21-6.21,6.21H10.5c-4,0-6.21-2.23-6.21-6.21V10.39c0-4,2.23-6.21,6.21-6.21h8.88A6,6,0,0,0,25.3,9.52H51.85a6,6,0,0,0,5.92-5.34h9.11c4,0,6.21,2.23,6.21,6.21Z" style="fill:#333f4d"/></svg>