<svg xmlns="http://www.w3.org/2000/svg" viewBox="0 0 512 512"><title>icon</title><polygon points="256.15 109.91 256.15 364.59 425.59 281.38 423.79 65.13 256.15 109.91" style="fill:#7a9abd"/><polygon points="444.85 60.43 444.85 394.04 502.31 358.18 502.31 45.36 444.85 60.43" style="fill:#7a9abd"/><polygon points="256.15 400.72 425.59 312.01 425.59 404.91 256.15 512 256.15 400.72" style="fill:#7a9abd"/><polygon points="150.42 446.08 8.88 358.18 8.88 156.34 150.56 211.7 150.42 446.08" style="fill:#7e9fc3"/><polygon points="8.88 45.07 150.64 83.1 150.64 178.65 8.88 127.91 8.88 45.07" style="fill:#7e9fc3"/><polygon points="174.89 91.34 256.15 109.91 256.15 364.59 174.89 324.69 174.89 91.34" style="fill:#7e9fc3"/><polygon points="174.89 358.18 174.89 461.33 256.15 512 256.15 400.72 174.89 358.18" style="fill:#7e9fc3"/><polygon points="321.3 45.36 150.64 83.1 8.88 45.07 174.89 17.37 321.3 45.36" style="fill:#a4c0de"/><polygon points="347.42 50.23 423.79 65.13 256.15 109.91 174.89 91.34 347.42 50.23" style="fill:#a4c0de"/><polygon points="444.85 60.43 195.29 13.96 254.99 4 502.31 45.36 444.85 60.43" style="fill:#a4c0de"/><polygon points="174.89 358.18 210.39 342.12 256.15 364.59 390.63 298.55 425.59 312.01 256.15 400.72 174.89 358.18" style="fill:#a4c0de"/><polygon points="8.88 156.34 55.73 144.68 150.64 178.65 174.89 171.48 174.89 203.84 150.56 211.7 8.88 156.34" style="fill:#a4c0de"/><polygon points="150.64 83.1 321.3 45.36 321.3 56.46 174.89 91.34 174.89 171.48 150.64 178.65 150.64 83.1" style="fill:#6d88a8"/><polygon points="150.56 211.7 174.89 203.84 174.89 324.69 210.39 342.12 174.89 358.18 174.89 433.47 150.42 446.08 150.56 211.7" style="fill:#6d88a8"/><polygon points="195.29 13.96 195.29 21.27 321.3 45.36 321.3 56.46 347.42 50.23 423.79 65.13 425.59 281.38 390.63 298.55 425.59 312.01 425.59 385.51 444.85 394.04 444.85 60.43 195.29 13.96" style="fill:#6d88a8"/></svg>